<svg version="1.1" xmlns="http://www.w3.org/2000/svg" viewBox="0 0 317.17151630105093 239.241621461277" width="634.3430326021019" height="478.483242922554">
  <!-- svg-source:excalidraw -->
  
  <defs>
    <style>
      @font-face {
        font-family: "Virgil";
        src: url("https://unpkg.com/@zsviczian/excalidraw@0.11.0-obsidian-20/dist/excalidraw-assets/Virgil.woff2");
      }
      @font-face {
        font-family: "Cascadia";
        src: url("https://unpkg.com/@zsviczian/excalidraw@0.11.0-obsidian-20/dist/excalidraw-assets/Cascadia.woff2");
      }
    </style>
  </defs>
  <rect x="0" y="0" width="317.17151630105093" height="239.241621461277" fill="#ffffff"/><g stroke-linecap="round" transform="translate(206.978020165649 182.241621461277) rotate(0 29 23.5)"><path d="M37.61 0.4 C43.32 1.42, 49.34 6.28, 52.56 10.4 C55.78 14.52, 57.44 20.17, 56.9 25.1 C56.37 30.03, 53.7 36.39, 49.35 39.96 C44.99 43.53, 36.88 46.06, 30.78 46.52 C24.69 46.98, 17.75 45.72, 12.78 42.73 C7.81 39.74, 2.57 33.31, 0.97 28.56 C-0.63 23.81, 0.62 18.75, 3.19 14.24 C5.75 9.73, 10.48 3.62, 16.38 1.51 C22.28 -0.6, 34.77 1.65, 38.58 1.57 C42.38 1.5, 39.49 0.88, 39.21 1.07 M26.78 -1.12 C32.58 -1.68, 39.24 1.11, 44.28 4.18 C49.31 7.25, 55.07 12.52, 56.98 17.3 C58.88 22.08, 58.32 28.49, 55.71 32.86 C53.09 37.23, 46.98 41.16, 41.29 43.52 C35.6 45.87, 27.25 47.8, 21.55 46.99 C15.85 46.17, 10.48 42.89, 7.09 38.62 C3.69 34.34, 1.21 26.31, 1.17 21.33 C1.13 16.34, 2.73 12.07, 6.87 8.7 C11.01 5.33, 22.92 2.67, 26.01 1.12 C29.09 -0.43, 25.18 -0.83, 25.37 -0.62" stroke="#000000" stroke-width="1" fill="none"/></g><g stroke-linecap="round"><g transform="translate(215.978020165649 194.241621461277) rotate(0 21 12)"><path d="M-0.51 -0.43 C6.49 3.47, 34.61 20.06, 41.66 24.01 M1.43 -1.7 C8.27 2.34, 33.95 21.23, 40.54 25.55" stroke="#000000" stroke-width="1" fill="none"/></g></g><g stroke-linecap="round"><g transform="translate(218.978020165649 225.241621461277) rotate(0 18 -18)"><path d="M1.13 0.11 C7.19 -6.17, 31.02 -30.88, 36.8 -36.76 M0.26 -0.88 C6.2 -7.11, 30.5 -29.59, 36.28 -35.62" stroke="#000000" stroke-width="1" fill="none"/></g></g><g stroke-linecap="round" transform="translate(209.978020165649 114.24162146127699) rotate(0 29 23.5)"><path d="M33.63 0.06 C39.64 0.73, 47.55 5.04, 51.67 8.95 C55.78 12.86, 58.57 18.55, 58.3 23.53 C58.03 28.52, 54.31 35.03, 50.07 38.86 C45.83 42.69, 38.76 45.81, 32.87 46.51 C26.97 47.22, 19.96 45.5, 14.69 43.08 C9.42 40.66, 3.36 36.51, 1.24 32 C-0.88 27.5, -0.28 20.92, 1.96 16.05 C4.21 11.19, 8.83 5.33, 14.69 2.8 C20.56 0.26, 32.87 0.99, 37.16 0.84 C41.44 0.68, 40.43 1.61, 40.41 1.87 M17.61 2.3 C22.85 0.23, 32.9 -1.02, 38.9 0.43 C44.89 1.87, 50.37 6.52, 53.56 11 C56.75 15.47, 59.05 22.25, 58.03 27.27 C57.01 32.28, 52.34 37.82, 47.46 41.11 C42.57 44.39, 34.8 46.99, 28.73 46.97 C22.66 46.95, 15.99 44.04, 11.05 40.99 C6.11 37.94, 0.49 33.72, -0.91 28.68 C-2.31 23.64, -0.79 15.26, 2.64 10.76 C6.07 6.27, 16.91 3.21, 19.65 1.68 C22.39 0.16, 18.93 1.53, 19.08 1.61" stroke="#000000" stroke-width="1" fill="none"/></g><g stroke-linecap="round"><g transform="translate(218.978020165649 126.24162146127699) rotate(0 21 12)"><path d="M0.08 0.46 C6.81 4.56, 34.38 20.03, 41.2 23.88 M-1.33 -0.35 C5.71 4.02, 36.04 21.19, 43.49 25.36" stroke="#000000" stroke-width="1" fill="none"/></g></g><g stroke-linecap="round"><g transform="translate(221.978020165649 157.241621461277) rotate(0 18 -18)"><path d="M0.46 -0.8 C6.56 -6.99, 30.03 -31.18, 35.88 -37.02 M-0.76 1.39 C5.24 -4.68, 28.98 -30.05, 34.87 -36.01" stroke="#000000" stroke-width="1" fill="none"/></g></g><g stroke-linecap="round" transform="translate(180.67552964959293 10) rotate(0 5 6)"><path d="M6.05 -0.21 C7.26 0.3, 9.44 2.72, 10.11 3.92 C10.77 5.12, 10.45 5.9, 10.02 7 C9.6 8.11, 8.31 9.83, 7.54 10.53 C6.77 11.24, 6.27 11.32, 5.41 11.24 C4.56 11.16, 3.16 10.67, 2.4 10.03 C1.65 9.4, 1.04 8.53, 0.9 7.43 C0.77 6.33, 1.17 4.69, 1.57 3.42 C1.98 2.15, 2.27 0.34, 3.33 -0.19 C4.39 -0.71, 7.04 -0.17, 7.94 0.25 C8.85 0.67, 8.96 2.09, 8.76 2.33 M2.63 0.05 C3.58 -0.44, 4.49 1.02, 5.55 1.41 C6.62 1.81, 8.34 1.44, 9.02 2.43 C9.7 3.42, 9.55 6.02, 9.61 7.36 C9.68 8.7, 10.04 9.86, 9.41 10.46 C8.78 11.06, 7.32 10.83, 5.84 10.97 C4.35 11.1, 1.43 11.89, 0.5 11.3 C-0.44 10.71, 0.04 8.64, 0.22 7.41 C0.4 6.19, 0.9 5.11, 1.57 3.95 C2.24 2.8, 4.16 1.13, 4.24 0.49 C4.32 -0.14, 2.36 0.26, 2.06 0.15" stroke="#000000" stroke-width="1" fill="none"/></g><g stroke-linecap="round" transform="translate(218.67552964959293 10) rotate(0 5 6)"><path d="M2.9 0.14 C3.85 -0.34, 4.94 0.66, 5.98 1.08 C7.03 1.51, 8.53 1.64, 9.15 2.68 C9.77 3.71, 9.74 6, 9.71 7.31 C9.68 8.62, 9.67 9.88, 8.97 10.55 C8.27 11.21, 6.85 11.23, 5.51 11.31 C4.16 11.39, 1.78 11.7, 0.89 11.02 C0 10.34, 0.1 8.47, 0.16 7.23 C0.23 5.99, 0.58 4.74, 1.29 3.58 C2.01 2.42, 4.08 0.87, 4.45 0.27 C4.81 -0.33, 3.67 0.03, 3.47 -0.01 M5.07 0.96 C5.94 1.06, 8.05 0.28, 8.83 0.91 C9.6 1.53, 9.61 3.08, 9.72 4.71 C9.83 6.35, 9.96 9.57, 9.48 10.71 C9 11.86, 7.8 11.38, 6.82 11.59 C5.85 11.79, 4.71 12.54, 3.64 11.94 C2.57 11.33, 1.19 9.27, 0.4 7.94 C-0.39 6.61, -1.68 5.27, -1.11 3.94 C-0.54 2.61, 2.75 0.36, 3.8 -0.04 C4.86 -0.45, 4.99 1.64, 5.24 1.52 C5.48 1.41, 5.17 -0.83, 5.27 -0.74" stroke="#000000" stroke-width="1" fill="none"/></g><g stroke-linecap="round"><g transform="translate(182.09631484981625 14.800210738128726) rotate(0 -82.71039260011166 0.599894630935637)"><path d="M-0.08 -0.58 C-27.93 -0.36, -138.27 0.85, -165.95 1.15 M-1.58 1.73 C-29.74 2.16, -140.17 2.52, -167.18 2.66" stroke="#000000" stroke-width="1" fill="none"/></g></g><g stroke-linecap="round"><g transform="translate(12.175529649592931 17) rotate(0 -1.0877648247964657 71.57414224969223)"><path d="M-0.86 -0.3 C-1.38 23.27, -2.23 118.68, -2.32 142.57 M0.89 -1.5 C0.13 22.73, -2.9 119.5, -3.35 143.8" stroke="#000000" stroke-width="1" fill="none"/></g></g><g stroke-linecap="round"><g transform="translate(10.175529649592931 162) rotate(0 48 0)"><path d="M-0.67 -0.84 C15.28 -0.74, 80.04 0.35, 96.16 0.63 M1.17 1.33 C16.95 1.08, 79.61 -0.76, 95.3 -1.16" stroke="#000000" stroke-width="1" fill="none"/></g></g><g stroke-linecap="round"><g transform="translate(105.67552964959293 160) rotate(0 25 -12)"><path d="M0.18 1.12 C8.45 -3.15, 41.42 -20.87, 49.58 -24.95 M-1.18 0.66 C6.9 -3.55, 39.61 -19.58, 48.41 -23.9" stroke="#000000" stroke-width="1" fill="none"/></g></g><g stroke-linecap="round"><g transform="translate(159.32272397226868 199.0089290873363) rotate(4.8060110551584865 23.597803048524863 -1.6892723509037086)"><path d="M0.62 -0.87 C8.54 -1.58, 40.02 -2.67, 47.63 -3.19 M-0.51 1.28 C7.27 1.31, 38.72 -0.84, 46.9 -1.56" stroke="#000000" stroke-width="1" fill="none"/></g></g><g stroke-linecap="round"><g transform="translate(158.21837131129152 136.97964380654145) rotate(4.8060110551584865 24.640102615265512 -1.968784255131352)"><path d="M-0.6 -0.62 C7.46 -1.36, 41.08 -3.54, 49.41 -4.12 M1.28 1.67 C9.11 1.09, 40.64 -1.93, 48.53 -2.67" stroke="#000000" stroke-width="1" fill="none"/></g></g><g stroke-linecap="round"><g transform="translate(265.6617368102802 207.83375959869812) rotate(0 20.400040113553388 0.3710668347513497)"><path d="M-0.97 0.35 C6.02 0.46, 34.23 0.06, 41.2 -0.03 M0.73 -0.51 C7.65 -0.21, 33.9 0.92, 40.47 1.11" stroke="#000000" stroke-width="1" fill="none"/></g></g><g stroke-linecap="round"><g transform="translate(266.4272438602828 135.91866520682012) rotate(0 19.426910385303188 -0.22053149556571938)"><path d="M-0.99 0.8 C5.46 0.75, 32.26 1.03, 38.9 0.64 M0.7 0.17 C6.97 -0.27, 31.74 -0.75, 37.97 -0.92" stroke="#000000" stroke-width="1" fill="none"/></g></g><g stroke-linecap="round"><g transform="translate(306.02518203293266 207.16947938495224) rotate(0.33088096682389107 0.06820126388990388 -93.92547672024324)"><path d="M0.73 0.83 C0.72 -30.37, 0.31 -155.82, 0.21 -187.33 M-0.35 0.22 C-0.54 -31.33, -0.65 -157.96, -0.7 -189.17" stroke="#000000" stroke-width="1" fill="none"/></g></g><g stroke-linecap="round"><g transform="translate(305.81222714565524 17.450426758610746) rotate(0 -38.10027350738136 -0.1525216324221077)"><path d="M0.42 0.73 C-12.09 0.82, -63.27 -0.33, -75.85 -0.42 M-0.82 0.06 C-13.39 0.43, -64.21 1.39, -76.62 1.06" stroke="#000000" stroke-width="1" fill="none"/></g></g><g stroke-linecap="round" transform="translate(302.0084483509187 134.11004017110784) rotate(0 2.5815339750661224 2.258842228182843)"><path d="M4.68 0.56 C5.02 0.71, 4.52 1.65, 4.74 2 C4.97 2.36, 6.08 2.37, 6.03 2.68 C5.99 3, 4.99 3.77, 4.48 3.92 C3.97 4.06, 3.67 3.61, 2.96 3.56 C2.25 3.51, 0.6 3.77, 0.21 3.62 C-0.19 3.48, 0.47 3.11, 0.59 2.69 C0.72 2.27, 0.63 1.39, 0.96 1.11 C1.29 0.83, 1.94 1.28, 2.59 1.03 C3.24 0.78, 4.74 -0.48, 4.88 -0.41 C5.01 -0.33, 3.42 1.2, 3.42 1.48 M1.65 1.27 C2.08 1.15, 3.87 -0.82, 4.62 -0.77 C5.38 -0.72, 5.98 0.95, 6.16 1.57 C6.35 2.18, 6.24 2.66, 5.74 2.93 C5.24 3.2, 3.77 3.09, 3.16 3.19 C2.55 3.29, 2.65 3.41, 2.07 3.52 C1.49 3.64, 0.21 4.17, -0.3 3.89 C-0.8 3.6, -1.25 2.22, -0.96 1.81 C-0.67 1.4, 1.1 1.75, 1.45 1.45 C1.79 1.15, 0.78 0.36, 1.13 0.01 C1.47 -0.33, 3.38 -0.41, 3.52 -0.61" stroke="none" stroke-width="0" fill="#000000"/><path d="M2.47 0.07 C2.85 -0.27, 2.85 -0.79, 3.1 -0.54 C3.35 -0.29, 3.7 1.08, 3.96 1.56 C4.22 2.05, 4.76 1.89, 4.65 2.37 C4.54 2.86, 3.78 4.08, 3.31 4.46 C2.84 4.85, 2.09 4.63, 1.81 4.66 C1.54 4.7, 1.84 5.04, 1.68 4.67 C1.52 4.3, 1.21 3.16, 0.85 2.47 C0.5 1.79, -0.63 0.82, -0.46 0.55 C-0.29 0.28, 1.08 0.76, 1.88 0.83 C2.68 0.91, 4.35 1.09, 4.33 0.97 M1.4 0.47 C2.11 0.17, 4.33 0.62, 4.9 0.71 C5.47 0.79, 4.7 0.54, 4.82 0.98 C4.94 1.43, 5.81 2.61, 5.62 3.39 C5.44 4.17, 4.17 5.69, 3.7 5.66 C3.23 5.64, 3.28 3.39, 2.82 3.25 C2.37 3.11, 1.53 5.18, 0.96 4.81 C0.39 4.43, -0.68 1.71, -0.61 1.01 C-0.53 0.31, 1.2 0.97, 1.41 0.61 C1.62 0.26, 0.46 -1.23, 0.65 -1.12 C0.84 -1, 2.5 0.96, 2.55 1.3" stroke="#000000" stroke-width="1" fill="none"/></g><g stroke-linecap="round" transform="translate(102.24205579935142 160.220054752143) rotate(0 2.5815339750661224 2.258842228182843)"><path d="M3.25 -0.29 C3.66 0.02, 4.55 1.42, 4.79 1.81 C5.03 2.21, 4.9 1.71, 4.69 2.08 C4.49 2.44, 3.99 3.51, 3.58 4.01 C3.16 4.51, 2.53 5.06, 2.2 5.1 C1.88 5.13, 1.97 4.75, 1.63 4.21 C1.29 3.68, 0.21 2.37, 0.16 1.88 C0.12 1.39, 1.19 1.58, 1.37 1.28 C1.54 0.99, 0.66 0.41, 1.23 0.11 C1.81 -0.18, 4.36 -0.59, 4.82 -0.5 C5.28 -0.41, 4.25 0.43, 4 0.66 M2.04 -1.39 C2.34 -1.54, 2.08 -0.68, 2.69 -0.06 C3.3 0.57, 5.31 1.82, 5.69 2.36 C6.07 2.91, 5.04 2.81, 4.96 3.22 C4.88 3.62, 5.83 4.8, 5.21 4.77 C4.6 4.75, 2.04 3, 1.25 3.09 C0.47 3.17, 0.9 5.26, 0.49 5.27 C0.09 5.28, -1.1 3.68, -1.19 3.14 C-1.29 2.6, -0.36 2.55, -0.08 2.05 C0.19 1.54, 0.1 0.65, 0.46 0.12 C0.82 -0.42, 1.7 -1.1, 2.07 -1.14" stroke="none" stroke-width="0" fill="#000000"/><path d="M1.3 -0.82 C1.74 -0.68, 2.45 0.44, 3.15 0.86 C3.84 1.29, 5.19 1.3, 5.46 1.73 C5.72 2.17, 4.98 2.92, 4.72 3.46 C4.47 4, 4.23 4.89, 3.94 4.97 C3.65 5.06, 3.36 4.24, 2.98 3.96 C2.6 3.68, 2.21 3.58, 1.69 3.31 C1.17 3.04, 0.11 2.75, -0.12 2.32 C-0.36 1.9, -0.3 1.21, 0.3 0.74 C0.89 0.27, 2.91 -0.5, 3.44 -0.49 C3.96 -0.49, 3.48 0.72, 3.45 0.76 M2.46 -0.56 C3.19 -1.02, 3.31 -0.92, 3.84 -0.53 C4.36 -0.15, 5.21 1.15, 5.62 1.76 C6.02 2.37, 6.29 2.95, 6.27 3.12 C6.26 3.3, 6.3 2.77, 5.53 2.81 C4.75 2.86, 2.23 3.19, 1.62 3.4 C1.01 3.61, 2.39 4.43, 1.88 4.07 C1.37 3.71, -1.17 1.51, -1.45 1.25 C-1.73 1, -0.33 2.76, 0.21 2.52 C0.75 2.28, 1.38 0.04, 1.78 -0.2 C2.18 -0.44, 2.78 1.09, 2.6 1.09" stroke="#000000" stroke-width="1" fill="none"/></g><g stroke-linecap="round" transform="translate(156.74205579935142 132.220054752143) rotate(0 2.5815339750661224 2.258842228182843)"><path d="M2.92 -0.57 C3.54 -0.61, 4.53 -0.02, 5.02 0.21 C5.52 0.44, 6.08 0.31, 5.9 0.82 C5.71 1.33, 4.44 2.57, 3.92 3.28 C3.4 3.98, 3.16 4.97, 2.77 5.04 C2.37 5.11, 2.06 4.12, 1.52 3.69 C0.98 3.27, -0.24 2.65, -0.46 2.5 C-0.67 2.35, 0.18 3.03, 0.25 2.79 C0.32 2.55, -0.41 1.69, -0.04 1.09 C0.33 0.48, 1.95 -0.77, 2.47 -0.85 C3 -0.92, 2.91 0.61, 3.11 0.65 M1.07 -1.2 C1.43 -1.38, 2.9 0.07, 3.43 0.48 C3.95 0.89, 3.9 0.88, 4.24 1.27 C4.58 1.65, 5.57 2.43, 5.49 2.79 C5.4 3.16, 4.45 3.08, 3.71 3.46 C2.96 3.83, 1.75 5.17, 1.01 5.03 C0.27 4.89, -0.36 2.97, -0.73 2.61 C-1.1 2.24, -1.58 3.03, -1.21 2.85 C-0.85 2.67, 0.63 1.77, 1.46 1.54 C2.29 1.3, 3.71 1.47, 3.75 1.44 C3.78 1.41, 1.96 1.64, 1.66 1.37" stroke="none" stroke-width="0" fill="#000000"/><path d="M0.92 0.61 C1.4 0.19, 2.66 -0.95, 3.26 -0.76 C3.86 -0.57, 4.16 1.21, 4.53 1.74 C4.9 2.27, 5.62 2.17, 5.48 2.42 C5.34 2.67, 4.3 2.89, 3.69 3.24 C3.08 3.58, 2.34 4.29, 1.84 4.48 C1.34 4.68, 0.85 4.87, 0.68 4.42 C0.52 3.97, 1.02 2.35, 0.83 1.78 C0.65 1.2, -0.48 1.25, -0.44 0.96 C-0.39 0.67, 0.54 0.15, 1.12 0.03 C1.7 -0.09, 2.8 0.16, 3.07 0.22 M1.98 1.06 C2.26 1.23, 2.06 0.56, 2.76 0.76 C3.45 0.96, 5.54 1.84, 6.16 2.26 C6.78 2.68, 6.65 3.04, 6.47 3.27 C6.29 3.5, 5.58 3.21, 5.09 3.64 C4.61 4.07, 4.26 5.61, 3.57 5.87 C2.87 6.12, 1.3 5.85, 0.92 5.18 C0.53 4.5, 1.58 2.73, 1.26 1.81 C0.94 0.89, -1.06 -0.08, -1 -0.35 C-0.93 -0.63, 1.2 -0.03, 1.64 0.14 C2.09 0.32, 1.5 0.73, 1.65 0.69" stroke="#000000" stroke-width="1" fill="none"/></g><g stroke-linecap="round" transform="translate(156.74205579935142 195.220054752143) rotate(0 2.5815339750661224 2.258842228182843)"><path d="M1.21 -0.12 C1.6 -0.2, 2.2 0.81, 2.73 0.94 C3.26 1.07, 4.09 0.31, 4.4 0.68 C4.71 1.05, 4.64 2.49, 4.59 3.14 C4.54 3.8, 4.44 4.29, 4.09 4.63 C3.74 4.97, 2.94 5.11, 2.5 5.16 C2.05 5.21, 1.76 5.19, 1.42 4.94 C1.09 4.7, 0.68 4.4, 0.49 3.69 C0.3 2.97, -0.08 1.36, 0.29 0.65 C0.66 -0.06, 2.43 -0.5, 2.72 -0.56 C3 -0.63, 2.27 -0.05, 1.99 0.25 M2.47 0.12 C2.83 -0.24, 3.02 -0.67, 3.35 -0.58 C3.69 -0.49, 4.29 0.18, 4.48 0.67 C4.67 1.16, 4.42 1.58, 4.48 2.36 C4.54 3.14, 5.39 4.95, 4.82 5.33 C4.26 5.72, 1.98 4.89, 1.1 4.67 C0.22 4.45, -0.09 4.09, -0.45 3.99 C-0.81 3.88, -1.29 4.44, -1.07 4.04 C-0.84 3.65, 0.56 2.51, 0.92 1.64 C1.28 0.77, 1.07 -1.16, 1.1 -1.17 C1.13 -1.18, 0.81 1.18, 1.1 1.6" stroke="none" stroke-width="0" fill="#000000"/><path d="M3.36 -0.48 C3.61 -0.37, 3.21 -0.21, 3.59 0.35 C3.97 0.9, 5.59 2.32, 5.62 2.85 C5.66 3.37, 4.18 3.16, 3.8 3.52 C3.42 3.87, 3.87 4.99, 3.32 4.98 C2.77 4.98, 1.09 3.78, 0.49 3.47 C-0.11 3.17, -0.11 3.53, -0.27 3.16 C-0.43 2.79, -0.77 1.8, -0.46 1.28 C-0.16 0.76, 0.99 0.34, 1.57 0.03 C2.16 -0.27, 2.9 -0.64, 3.06 -0.56 C3.22 -0.49, 2.67 0.46, 2.52 0.49 M2.49 1.47 C3.05 1.02, 4.16 -0.54, 4.75 -0.71 C5.34 -0.88, 6.06 0.04, 6.05 0.47 C6.05 0.9, 5 1.4, 4.71 1.85 C4.42 2.29, 4.75 2.65, 4.29 3.14 C3.82 3.64, 2.32 4.61, 1.91 4.82 C1.5 5.03, 2.1 4.69, 1.84 4.41 C1.59 4.13, 0.82 3.56, 0.37 3.15 C-0.09 2.73, -1.18 2.2, -0.88 1.91 C-0.58 1.62, 1.86 1.56, 2.17 1.43 C2.48 1.3, 1.07 1.18, 0.97 1.13" stroke="#000000" stroke-width="1" fill="none"/></g></svg>